<?xml version="1.0" encoding="utf-8"?>
<!-- Generator: Adobe Illustrator 15.0.0, SVG Export Plug-In . SVG Version: 6.00 Build 0)  -->
<!DOCTYPE svg PUBLIC "-//W3C//DTD SVG 1.1//EN" "http://www.w3.org/Graphics/SVG/1.1/DTD/svg11.dtd">
<svg version="1.1" id="Layer_1" xmlns="http://www.w3.org/2000/svg" xmlns:xlink="http://www.w3.org/1999/xlink" x="0px" y="0px"
	 width="29.999px" height="26.999px" viewBox="0 0 29.999 26.999" enable-background="new 0 0 29.999 26.999" xml:space="preserve">
<g id="XMLID_2_">
	<g>
	</g>
	<g>
		<path fill="none" stroke="#000000" stroke-width="0.5" stroke-miterlimit="10" d="M22.891,22.324
			c1.311-0.165,2.352,0.849,2.368,2.068c0.021,1.36-1.091,2.232-2.198,2.196C20.455,26.504,20.432,22.633,22.891,22.324z"/>
		<path fill="none" stroke="#000000" stroke-width="0.5" stroke-miterlimit="10" d="M11.632,22.324
			c0.668-0.093,1.358,0.159,1.735,0.517c1.572,1.495-0.076,4.704-2.413,3.531c-0.542-0.27-1.05-0.926-1.142-1.552
			C9.625,23.563,10.438,22.492,11.632,22.324z"/>
		<path fill="none" stroke="#000000" stroke-width="0.5" stroke-miterlimit="10" d="M13.325,11.729
			c0.112,1.176,0.219,2.363,0.298,3.576c-1.351,0.044-2.728,0.067-4.106,0.087c-0.258-1.22-0.536-2.416-0.762-3.663
			C10.277,11.729,11.802,11.729,13.325,11.729z"/>
		<path fill="none" stroke="#000000" stroke-width="0.5" stroke-miterlimit="10" d="M20.223,11.687
			c-0.063,1.261-0.238,2.14-0.252,3.446c-1.277,0.137-2.737,0.087-4.105,0.129c-0.113-1.394-0.215-2.152-0.337-3.532
			C17.014,11.638,18.665,11.709,20.223,11.687z"/>
		<path fill="none" stroke="#000000" stroke-width="0.5" stroke-miterlimit="10" d="M26.319,11.644
			c-0.229,1.177-0.504,2.306-0.766,3.446c-1.286-0.021-2.225,0.057-3.511,0.043c0.096-1.166,0.147-2.293,0.254-3.446
			C23.673,11.709,24.93,11.611,26.319,11.644z"/>
		<path fill="none" stroke="#000000" stroke-width="0.5" stroke-miterlimit="10" d="M27.46,6.303
			c0.023,0.46-0.165,1.065-0.296,1.636c-0.133,0.57-0.271,1.181-0.382,1.723c-1.439,0-2.876,0-4.315,0
			c0.045-1.16,0.146-2.261,0.256-3.359c-0.004-0.075,0.03-0.113,0.082-0.13C24.305,6.269,25.969,6.197,27.46,6.303z"/>
		<path fill="none" stroke="#000000" stroke-width="0.5" stroke-miterlimit="10" d="M20.646,6.173
			c-0.092,1.17-0.143,2.384-0.296,3.489c-1.706,0.013-3.382-0.004-5.036-0.042c-0.042-1.206-0.3-2.423-0.253-3.575
			C16.915,6.095,18.837,6.076,20.646,6.173z"/>
		<path fill="none" stroke="#000000" stroke-width="0.5" stroke-miterlimit="10" d="M7.527,5.914
			c1.781-0.002,3.504,0.052,5.248,0.087c0.149,1.166,0.242,2.393,0.34,3.618c-1.609,0-3.218,0-4.826,0
			C8.058,8.362,7.788,7.142,7.527,5.914z"/>
		<path fill="none" stroke="#000000" stroke-width="0.5" stroke-miterlimit="10" d="M7.061,3.719
			c6.429,0.26,12.963,0.327,19.596,0.56c1.365,0.048,2.642-0.096,2.919,0.99c0.198,0.773-0.292,2.07-0.468,2.843
			c-0.453,2.005-0.777,3.535-1.227,5.555c-0.271,1.223-0.398,2.945-1.48,3.317c-0.503,0.173-1.329,0.098-2.031,0.13
			c-4.79,0.221-9.691,0.162-14.389,0.43c0.017,0.325,0.169,0.89,0.254,1.292c4.69,0,9.408,0,14.261,0
			c1.195,0,2.243-0.053,2.243,1.077c0,1.212-1.24,1.074-2.581,1.074c-4.378,0-8.382,0-12.822,0c-1.433,0-2.333,0.123-2.879-0.772
			c-0.318-0.524-0.4-1.44-0.549-2.153C6.826,12.886,5.727,7.619,4.691,2.469C3.212,2.261,0.297,3.109,0.248,1.436
			c-0.042-1.411,1.828-1.12,3.302-1.12c0.789,0,1.673-0.068,2.2,0.172C6.882,1.004,6.704,2.361,7.061,3.719z"/>
	</g>
</g>
</svg>
