<?xml version="1.0" encoding="utf-8"?>
<!-- Generator: Adobe Illustrator 15.0.0, SVG Export Plug-In . SVG Version: 6.00 Build 0)  -->
<!DOCTYPE svg PUBLIC "-//W3C//DTD SVG 1.1//EN" "http://www.w3.org/Graphics/SVG/1.1/DTD/svg11.dtd">
<svg version="1.1" id="Layer_1" xmlns="http://www.w3.org/2000/svg" xmlns:xlink="http://www.w3.org/1999/xlink" x="0px" y="0px"
	 width="29.999px" height="26.999px" viewBox="0 0 29.999 26.999" enable-background="new 0 0 29.999 26.999" xml:space="preserve">
<g id="XMLID_2_">
	<g>
		<path d="M13.398,23.121c1.605,1.532-0.079,4.822-2.463,3.619c-0.555-0.277-1.072-0.948-1.167-1.59
			c-0.191-1.289,0.639-2.388,1.859-2.56C12.309,22.496,13.013,22.754,13.398,23.121z"/>
		<path d="M20.833,6.03c-1.849-0.099-3.812-0.08-5.705-0.132c-0.047,1.181,0.216,2.429,0.26,3.666
			c1.689,0.039,3.4,0.057,5.144,0.043C20.688,8.474,20.739,7.23,20.833,6.03z M20.399,11.683c-1.591,0.024-3.277-0.049-4.795,0.044
			c0.126,1.415,0.229,2.193,0.344,3.621c1.398-0.042,2.89,0.009,4.193-0.132C20.156,13.878,20.335,12.977,20.399,11.683z
			 M26.624,11.64c-1.417-0.034-2.7,0.067-4.106,0.043c-0.108,1.183-0.161,2.338-0.258,3.534c1.313,0.015,2.271-0.064,3.585-0.044
			C26.111,14.004,26.393,12.846,26.624,11.64z M27.488,7.841c0.135-0.585,0.326-1.205,0.302-1.677
			c-1.523-0.108-3.222-0.035-4.754-0.133c-0.053,0.018-0.088,0.056-0.085,0.133c-0.11,1.125-0.214,2.255-0.261,3.444
			c1.471,0,2.938,0,4.408,0C27.211,9.052,27.354,8.426,27.488,7.841z M9.466,15.482c1.408-0.02,2.813-0.043,4.193-0.088
			c-0.081-1.244-0.188-2.461-0.304-3.667c-1.556,0-3.113,0-4.667,0C8.919,13.006,9.202,14.232,9.466,15.482z M12.795,5.854
			c-1.781-0.036-3.541-0.091-5.36-0.088c0.266,1.259,0.542,2.51,0.778,3.799c1.642,0,3.285,0,4.928,0
			C13.042,8.308,12.947,7.05,12.795,5.854z M4.539,2.233C3.028,2.02,0.05,2.89,0,1.173c-0.042-1.446,1.867-1.147,3.372-1.147
			c0.806,0,1.709-0.07,2.247,0.176c1.156,0.529,0.975,1.92,1.339,3.312C13.524,3.78,20.197,3.849,26.97,4.088
			c1.395,0.049,2.698-0.098,2.982,1.016c0.202,0.793-0.299,2.123-0.478,2.915c-0.463,2.056-0.794,3.625-1.253,5.696
			c-0.276,1.254-0.407,3.02-1.513,3.401c-0.513,0.178-1.356,0.1-2.073,0.134c-4.893,0.226-9.898,0.165-14.695,0.44
			c0.018,0.334,0.173,0.911,0.26,1.324c4.789,0,9.607,0,14.564,0c1.221,0,2.29-0.054,2.29,1.104c0,1.242-1.266,1.102-2.636,1.102
			c-4.47,0-8.56,0-13.095,0c-1.462,0-2.383,0.126-2.939-0.792c-0.326-0.539-0.409-1.477-0.562-2.209
			C6.718,12.914,5.596,7.513,4.539,2.233z"/>
		<path d="M25.543,24.711c0.021,1.395-1.115,2.289-2.246,2.251c-2.66-0.087-2.684-4.056-0.173-4.371
			C24.463,22.421,25.525,23.46,25.543,24.711z"/>
	</g>
	<g>
	</g>
</g>
</svg>
