<?xml version="1.0" encoding="utf-8"?>
<!-- Generator: Adobe Illustrator 15.0.0, SVG Export Plug-In . SVG Version: 6.00 Build 0)  -->
<!DOCTYPE svg PUBLIC "-//W3C//DTD SVG 1.1//EN" "http://www.w3.org/Graphics/SVG/1.1/DTD/svg11.dtd">
<svg version="1.1" id="Layer_1" xmlns="http://www.w3.org/2000/svg" xmlns:xlink="http://www.w3.org/1999/xlink" x="0px" y="0px"
	 width="24px" height="24px" viewBox="0 0 24 24" enable-background="new 0 0 24 24" xml:space="preserve">
<path d="M12,0.297c-6.63,0-12,5.371-12,12c0,5.302,3.438,9.799,8.205,11.384c0.601,0.113,0.82-0.257,0.82-0.577
	c0-0.285-0.011-1.04-0.015-2.04c-3.338,0.724-4.042-1.608-4.042-1.608C4.422,18.07,3.633,17.7,3.633,17.7
	c-1.087-0.743,0.084-0.729,0.084-0.729c1.205,0.084,1.837,1.236,1.837,1.236c1.07,1.834,2.81,1.304,3.495,0.996
	C9.158,18.43,9.468,17.9,9.811,17.6c-2.666-0.3-5.467-1.331-5.467-5.931c0-1.31,0.465-2.379,1.235-3.219
	c-0.135-0.304-0.54-1.522,0.105-3.176c0,0,1.005-0.322,3.3,1.23c0.96-0.267,1.981-0.4,3-0.406c1.021,0.006,2.04,0.139,2.999,0.406
	c2.281-1.552,3.286-1.23,3.286-1.23c0.645,1.654,0.24,2.872,0.12,3.176c0.765,0.84,1.229,1.909,1.229,3.219
	c0,4.612-2.806,5.625-5.475,5.921c0.419,0.36,0.809,1.096,0.809,2.221c0,1.605-0.014,2.895-0.014,3.285
	c0,0.315,0.21,0.691,0.825,0.57C20.564,22.094,24,17.593,24,12.297C24,5.668,18.628,0.297,12,0.297"/>
</svg>
