<?xml version="1.0" encoding="utf-8"?>
<!-- Generator: Adobe Illustrator 15.0.0, SVG Export Plug-In . SVG Version: 6.00 Build 0)  -->
<!DOCTYPE svg PUBLIC "-//W3C//DTD SVG 1.1//EN" "http://www.w3.org/Graphics/SVG/1.1/DTD/svg11.dtd">
<svg version="1.1" id="Layer_1" xmlns="http://www.w3.org/2000/svg" xmlns:xlink="http://www.w3.org/1999/xlink" x="0px" y="0px"
	 width="26.898px" height="24px" viewBox="0 0 26.898 24" enable-background="new 0 0 26.898 24" xml:space="preserve">
<path fill="#FFFFFF" d="M0.125,11.981c0,2.008,1.961,3.884,5.053,4.94c-0.617,3.109-0.11,5.615,1.582,6.591
	c1.74,1.002,4.332,0.31,6.793-1.843c2.397,2.064,4.82,2.876,6.514,1.897c1.736-1.006,2.265-3.681,1.632-6.887
	c3.219-1.064,5.021-2.663,5.021-4.699c0-1.962-1.964-3.658-5.015-4.708c0.684-3.338,0.104-5.783-1.659-6.8
	c-1.699-0.979-4.151-0.125-6.584,1.993c-2.532-2.248-4.959-2.935-6.72-1.916c-1.697,0.984-2.182,3.534-1.563,6.7
	C2.19,8.292,0.125,10.028,0.125,11.981z"/>
<path d="M21.032,8.354c-0.254-0.087-0.508-0.167-0.765-0.241c0.041-0.173,0.082-0.347,0.119-0.521
	c0.578-2.807,0.199-5.068-1.093-5.813c-1.237-0.714-3.261,0.031-5.306,1.81c-0.202,0.176-0.399,0.356-0.591,0.542
	c-0.129-0.123-0.26-0.244-0.394-0.364c-2.143-1.902-4.291-2.704-5.581-1.957C6.187,2.527,5.821,4.652,6.342,7.313
	c0.051,0.263,0.109,0.526,0.174,0.786C6.212,8.185,5.919,8.277,5.638,8.375c-2.512,0.876-4.116,2.249-4.116,3.673
	c0,1.47,1.722,2.945,4.338,3.839c0.212,0.072,0.426,0.14,0.642,0.2c-0.07,0.281-0.132,0.563-0.187,0.848
	c-0.496,2.613-0.108,4.689,1.125,5.401c1.274,0.735,3.412-0.021,5.494-1.84c0.165-0.144,0.33-0.298,0.495-0.456
	c0.209,0.201,0.423,0.396,0.642,0.584c2.016,1.735,4.008,2.437,5.242,1.723c1.271-0.737,1.684-2.966,1.148-5.679
	c-0.041-0.207-0.089-0.42-0.144-0.635c0.149-0.044,0.299-0.09,0.442-0.138c2.72-0.901,4.489-2.357,4.489-3.848
	C25.25,10.619,23.596,9.236,21.032,8.354L21.032,8.354z"/>
<path fill="#FFFFFF" d="M20.442,14.933c-0.132,0.044-0.264,0.086-0.399,0.125c-0.301-0.949-0.706-1.96-1.201-3.006
	c0.474-1.02,0.863-2.017,1.154-2.961c0.243,0.07,0.479,0.144,0.704,0.222c2.198,0.756,3.535,1.874,3.535,2.735
	C24.235,12.966,22.79,14.155,20.442,14.933L20.442,14.933z M19.467,16.865c0.238,1.198,0.271,2.283,0.114,3.132
	c-0.142,0.762-0.425,1.269-0.777,1.472c-0.747,0.434-2.346-0.129-4.07-1.613c-0.198-0.171-0.398-0.351-0.598-0.544
	c0.667-0.73,1.336-1.581,1.99-2.525c1.146-0.103,2.229-0.269,3.213-0.495C19.386,16.485,19.43,16.678,19.467,16.865L19.467,16.865z
	 M9.612,21.395c-0.731,0.259-1.313,0.266-1.665,0.063c-0.749-0.432-1.06-2.098-0.636-4.333c0.051-0.264,0.109-0.526,0.174-0.788
	c0.972,0.216,2.048,0.37,3.198,0.463c0.656,0.924,1.344,1.773,2.036,2.516c-0.146,0.144-0.296,0.282-0.451,0.417
	C11.347,20.537,10.425,21.108,9.612,21.395L9.612,21.395z M6.188,14.928c-1.157-0.395-2.113-0.909-2.768-1.471
	c-0.588-0.503-0.886-1.004-0.886-1.409c0-0.865,1.289-1.967,3.437-2.716c0.27-0.093,0.542-0.179,0.817-0.257
	c0.297,0.966,0.687,1.976,1.157,2.997c-0.476,1.037-0.871,2.063-1.171,3.039C6.577,15.055,6.382,14.994,6.188,14.928z M7.336,7.119
	C6.89,4.838,7.186,3.12,7.932,2.688c0.794-0.459,2.549,0.196,4.399,1.838c0.119,0.105,0.237,0.216,0.357,0.329
	c-0.69,0.741-1.371,1.583-2.022,2.501C9.549,7.46,8.481,7.626,7.5,7.849C7.438,7.607,7.384,7.363,7.336,7.119L7.336,7.119z
	 M17.571,9.646c-0.232-0.401-0.474-0.796-0.722-1.187c0.757,0.096,1.482,0.223,2.163,0.378c-0.204,0.656-0.458,1.341-0.759,2.044
	C18.035,10.464,17.806,10.052,17.571,9.646L17.571,9.646z M13.398,5.58c0.468,0.506,0.935,1.072,1.395,1.686
	c-0.933-0.044-1.87-0.044-2.803-0.001C12.451,6.657,12.923,6.092,13.398,5.58L13.398,5.58z M9.196,9.652
	c-0.232,0.404-0.456,0.813-0.669,1.227c-0.295-0.7-0.548-1.389-0.754-2.054C8.45,8.675,9.172,8.551,9.924,8.457
	C9.672,8.85,9.43,9.248,9.196,9.652z M9.946,15.71c-0.777-0.088-1.51-0.205-2.187-0.351c0.209-0.678,0.468-1.38,0.769-2.095
	c0.215,0.414,0.439,0.822,0.673,1.227C9.439,14.903,9.688,15.309,9.946,15.71z M13.426,18.587c-0.481-0.52-0.96-1.094-1.428-1.709
	c0.455,0.019,0.917,0.025,1.388,0.025c0.483,0,0.963-0.009,1.433-0.031C14.356,17.5,13.89,18.074,13.426,18.587z M18.262,13.227
	c0.32,0.725,0.586,1.422,0.798,2.088c-0.688,0.157-1.43,0.283-2.212,0.377c0.25-0.397,0.493-0.801,0.729-1.207
	C17.813,14.07,18.043,13.651,18.262,13.227L18.262,13.227z M16.696,13.979c-0.359,0.624-0.739,1.236-1.137,1.837
	c-0.704,0.05-1.432,0.075-2.174,0.075c-0.738,0-1.457-0.022-2.148-0.067c-0.41-0.599-0.797-1.212-1.16-1.839
	c-0.361-0.625-0.699-1.263-1.012-1.914c0.313-0.648,0.649-1.288,1.009-1.912v0c0.36-0.625,0.744-1.236,1.15-1.832
	c0.706-0.054,1.43-0.082,2.162-0.082c0.734,0,1.459,0.028,2.165,0.082c0.401,0.595,0.784,1.204,1.143,1.826
	c0.361,0.623,0.702,1.258,1.024,1.905C17.4,12.709,17.062,13.35,16.696,13.979L16.696,13.979z M18.788,2.658
	c0.795,0.458,1.105,2.306,0.604,4.73c-0.032,0.158-0.067,0.315-0.106,0.472c-0.983-0.227-2.053-0.396-3.174-0.501
	c-0.651-0.928-1.327-1.772-2.004-2.503c0.177-0.172,0.358-0.338,0.545-0.5C16.405,2.83,18.043,2.228,18.788,2.658L18.788,2.658z"/>
<path d="M13.386,9.929c1.171,0,2.119,0.948,2.119,2.119c0,1.17-0.948,2.117-2.119,2.117c-1.169,0-2.119-0.947-2.119-2.117
	C11.267,10.877,12.216,9.929,13.386,9.929"/>
</svg>
