<?xml version="1.0" encoding="utf-8"?>
<!-- Generator: Adobe Illustrator 15.0.0, SVG Export Plug-In . SVG Version: 6.00 Build 0)  -->
<!DOCTYPE svg PUBLIC "-//W3C//DTD SVG 1.1//EN" "http://www.w3.org/Graphics/SVG/1.1/DTD/svg11.dtd">
<svg version="1.1" id="Layer_1" xmlns="http://www.w3.org/2000/svg" xmlns:xlink="http://www.w3.org/1999/xlink" x="0px" y="0px"
	 width="40px" height="40px" viewBox="30 30 40 40" enable-background="new 30 30 40 40" xml:space="preserve">
<path fill="#FFFFFF" stroke="#777777" stroke-miterlimit="10" d="M33.125,52.827c-0.396,0-0.754-0.066-1.075-0.198
	c-0.377-0.15-0.678-0.349-0.904-0.594c-0.302-0.264-0.519-0.574-0.651-0.933c-0.113-0.206-0.169-0.574-0.169-1.102
	c0-0.508,0.057-0.867,0.169-1.075c0.151-0.321,0.359-0.622,0.622-0.904c0.302-0.302,0.612-0.519,0.933-0.65
	c0.32-0.132,0.678-0.198,1.075-0.198h33.748c0.396,0,0.754,0.065,1.075,0.198c0.376,0.151,0.678,0.349,0.903,0.594
	c0.282,0.264,0.499,0.584,0.65,0.961c0.113,0.207,0.169,0.565,0.169,1.075c0,0.51-0.056,0.868-0.169,1.075
	c-0.151,0.32-0.358,0.622-0.622,0.903c-0.302,0.303-0.613,0.519-0.933,0.65c-0.32,0.132-0.678,0.198-1.074,0.198L33.125,52.827
	L33.125,52.827z M33.125,69.673c-0.471,0-0.829-0.065-1.075-0.197c-0.358-0.151-0.659-0.349-0.904-0.595
	c-0.302-0.302-0.519-0.612-0.651-0.932c-0.113-0.207-0.169-0.564-0.169-1.075c0-0.488,0.057-0.838,0.169-1.046
	c0.132-0.32,0.339-0.622,0.622-0.903c0.245-0.245,0.556-0.453,0.933-0.623c0.32-0.132,0.679-0.197,1.075-0.197h33.748
	c0.396,0,0.754,0.065,1.075,0.197c0.376,0.17,0.678,0.368,0.903,0.594c0.264,0.264,0.471,0.575,0.622,0.933
	c0.132,0.244,0.198,0.594,0.198,1.046c0,0.471-0.066,0.829-0.198,1.075c-0.151,0.357-0.349,0.659-0.594,0.903
	c-0.302,0.303-0.612,0.519-0.932,0.65c-0.208,0.113-0.566,0.17-1.075,0.17H33.125L33.125,69.673z M33.125,35.953
	c-0.358,0-0.716-0.085-1.075-0.255c-0.358-0.151-0.659-0.349-0.904-0.594c-0.283-0.283-0.5-0.575-0.651-0.876
	c-0.113-0.207-0.169-0.574-0.169-1.102c0-0.509,0.057-0.867,0.169-1.075c0.132-0.32,0.339-0.622,0.622-0.903
	c0.264-0.264,0.575-0.472,0.933-0.623c0.245-0.132,0.603-0.198,1.075-0.198h33.748c0.471,0,0.829,0.066,1.075,0.198
	c0.376,0.151,0.678,0.358,0.903,0.623c0.264,0.226,0.471,0.527,0.622,0.903c0.132,0.245,0.198,0.603,0.198,1.075
	c0,0.489-0.066,0.856-0.198,1.102c-0.132,0.321-0.329,0.613-0.594,0.876c-0.338,0.245-0.649,0.443-0.932,0.594
	c-0.358,0.17-0.717,0.255-1.075,0.255H33.125z"/>
</svg>
